<svg xmlns="http://www.w3.org/2000/svg" viewBox="0 0 300 300" width="300" height="300">
<rect width="300" height="300" rx="55" ry="55" fill="#FFFFFF"/>
<circle cx="150" cy="150" r="49" fill="#F0FFF4"/>
<line x1="150.0" y1="45.0" x2="145.4" y2="67.1" stroke="#88DDA8" stroke-width="5" stroke-linecap="round"/>
<line x1="150.0" y1="45.0" x2="154.6" y2="67.1" stroke="#88DDA8" stroke-width="5" stroke-linecap="round"/>
<circle cx="150.0" cy="45.0" r="9" fill="#00C244"/>
<line x1="195.6" y1="55.4" x2="181.8" y2="73.4" stroke="#88DDA8" stroke-width="5" stroke-linecap="round"/>
<line x1="195.6" y1="55.4" x2="190.1" y2="77.3" stroke="#88DDA8" stroke-width="5" stroke-linecap="round"/>
<circle cx="195.6" cy="55.4" r="9" fill="#00C244"/>
<line x1="232.1" y1="84.5" x2="211.9" y2="94.8" stroke="#88DDA8" stroke-width="5" stroke-linecap="round"/>
<line x1="232.1" y1="84.5" x2="217.6" y2="101.9" stroke="#88DDA8" stroke-width="5" stroke-linecap="round"/>
<circle cx="232.1" cy="84.5" r="9" fill="#00C244"/>
<line x1="252.4" y1="126.6" x2="229.8" y2="127.1" stroke="#88DDA8" stroke-width="5" stroke-linecap="round"/>
<line x1="252.4" y1="126.6" x2="231.8" y2="136.0" stroke="#88DDA8" stroke-width="5" stroke-linecap="round"/>
<circle cx="252.4" cy="126.6" r="9" fill="#00C244"/>
<line x1="252.4" y1="173.4" x2="231.8" y2="164.0" stroke="#88DDA8" stroke-width="5" stroke-linecap="round"/>
<line x1="252.4" y1="173.4" x2="229.8" y2="172.9" stroke="#88DDA8" stroke-width="5" stroke-linecap="round"/>
<circle cx="252.4" cy="173.4" r="9" fill="#00C244"/>
<line x1="232.1" y1="215.5" x2="217.6" y2="198.1" stroke="#88DDA8" stroke-width="5" stroke-linecap="round"/>
<line x1="232.1" y1="215.5" x2="211.9" y2="205.2" stroke="#88DDA8" stroke-width="5" stroke-linecap="round"/>
<circle cx="232.1" cy="215.5" r="9" fill="#00C244"/>
<line x1="195.6" y1="244.6" x2="190.1" y2="222.7" stroke="#88DDA8" stroke-width="5" stroke-linecap="round"/>
<line x1="195.6" y1="244.6" x2="181.8" y2="226.6" stroke="#88DDA8" stroke-width="5" stroke-linecap="round"/>
<circle cx="195.6" cy="244.6" r="9" fill="#00C244"/>
<line x1="150.0" y1="255.0" x2="154.6" y2="232.9" stroke="#88DDA8" stroke-width="5" stroke-linecap="round"/>
<line x1="150.0" y1="255.0" x2="145.4" y2="232.9" stroke="#88DDA8" stroke-width="5" stroke-linecap="round"/>
<circle cx="150.0" cy="255.0" r="9" fill="#00C244"/>
<line x1="104.4" y1="244.6" x2="118.2" y2="226.6" stroke="#88DDA8" stroke-width="5" stroke-linecap="round"/>
<line x1="104.4" y1="244.6" x2="109.9" y2="222.7" stroke="#88DDA8" stroke-width="5" stroke-linecap="round"/>
<circle cx="104.4" cy="244.6" r="9" fill="#00C244"/>
<line x1="67.9" y1="215.5" x2="88.1" y2="205.2" stroke="#88DDA8" stroke-width="5" stroke-linecap="round"/>
<line x1="67.9" y1="215.5" x2="82.4" y2="198.1" stroke="#88DDA8" stroke-width="5" stroke-linecap="round"/>
<circle cx="67.9" cy="215.5" r="9" fill="#00C244"/>
<line x1="47.6" y1="173.4" x2="70.2" y2="172.9" stroke="#88DDA8" stroke-width="5" stroke-linecap="round"/>
<line x1="47.6" y1="173.4" x2="68.2" y2="164.0" stroke="#88DDA8" stroke-width="5" stroke-linecap="round"/>
<circle cx="47.6" cy="173.4" r="9" fill="#00C244"/>
<line x1="47.6" y1="126.6" x2="68.2" y2="136.0" stroke="#88DDA8" stroke-width="5" stroke-linecap="round"/>
<line x1="47.6" y1="126.6" x2="70.2" y2="127.1" stroke="#88DDA8" stroke-width="5" stroke-linecap="round"/>
<circle cx="47.6" cy="126.6" r="9" fill="#00C244"/>
<line x1="67.9" y1="84.5" x2="82.4" y2="101.9" stroke="#88DDA8" stroke-width="5" stroke-linecap="round"/>
<line x1="67.9" y1="84.5" x2="88.1" y2="94.8" stroke="#88DDA8" stroke-width="5" stroke-linecap="round"/>
<circle cx="67.9" cy="84.5" r="9" fill="#00C244"/>
<line x1="104.4" y1="55.4" x2="109.9" y2="77.3" stroke="#88DDA8" stroke-width="5" stroke-linecap="round"/>
<line x1="104.4" y1="55.4" x2="118.2" y2="73.4" stroke="#88DDA8" stroke-width="5" stroke-linecap="round"/>
<circle cx="104.4" cy="55.4" r="9" fill="#00C244"/>
<line x1="170.5" y1="93.6" x2="172.6" y2="71.2" stroke="#F0A0DC" stroke-width="5" stroke-linecap="round"/>
<line x1="170.5" y1="93.6" x2="183.4" y2="75.1" stroke="#F0A0DC" stroke-width="5" stroke-linecap="round"/>
<circle cx="170.5" cy="93.6" r="9" fill="#CC00AA"/>
<line x1="202.0" y1="120.0" x2="218.0" y2="104.1" stroke="#F0A0DC" stroke-width="5" stroke-linecap="round"/>
<line x1="202.0" y1="120.0" x2="223.7" y2="114.1" stroke="#F0A0DC" stroke-width="5" stroke-linecap="round"/>
<circle cx="202.0" cy="120.0" r="9" fill="#CC00AA"/>
<line x1="209.1" y1="160.4" x2="231.6" y2="158.6" stroke="#F0A0DC" stroke-width="5" stroke-linecap="round"/>
<line x1="209.1" y1="160.4" x2="229.6" y2="169.9" stroke="#F0A0DC" stroke-width="5" stroke-linecap="round"/>
<circle cx="209.1" cy="160.4" r="9" fill="#CC00AA"/>
<line x1="188.6" y1="196.0" x2="207.0" y2="209.0" stroke="#F0A0DC" stroke-width="5" stroke-linecap="round"/>
<line x1="188.6" y1="196.0" x2="198.2" y2="216.3" stroke="#F0A0DC" stroke-width="5" stroke-linecap="round"/>
<circle cx="188.6" cy="196.0" r="9" fill="#CC00AA"/>
<line x1="150.0" y1="210.0" x2="155.7" y2="231.8" stroke="#F0A0DC" stroke-width="5" stroke-linecap="round"/>
<line x1="150.0" y1="210.0" x2="144.3" y2="231.8" stroke="#F0A0DC" stroke-width="5" stroke-linecap="round"/>
<circle cx="150.0" cy="210.0" r="9" fill="#CC00AA"/>
<line x1="111.4" y1="196.0" x2="101.8" y2="216.3" stroke="#F0A0DC" stroke-width="5" stroke-linecap="round"/>
<line x1="111.4" y1="196.0" x2="93.0" y2="209.0" stroke="#F0A0DC" stroke-width="5" stroke-linecap="round"/>
<circle cx="111.4" cy="196.0" r="9" fill="#CC00AA"/>
<line x1="90.9" y1="160.4" x2="70.4" y2="169.9" stroke="#F0A0DC" stroke-width="5" stroke-linecap="round"/>
<line x1="90.9" y1="160.4" x2="68.4" y2="158.6" stroke="#F0A0DC" stroke-width="5" stroke-linecap="round"/>
<circle cx="90.9" cy="160.4" r="9" fill="#CC00AA"/>
<line x1="98.0" y1="120.0" x2="76.3" y2="114.1" stroke="#F0A0DC" stroke-width="5" stroke-linecap="round"/>
<line x1="98.0" y1="120.0" x2="82.0" y2="104.1" stroke="#F0A0DC" stroke-width="5" stroke-linecap="round"/>
<circle cx="98.0" cy="120.0" r="9" fill="#CC00AA"/>
<line x1="129.5" y1="93.6" x2="116.6" y2="75.1" stroke="#F0A0DC" stroke-width="5" stroke-linecap="round"/>
<line x1="129.5" y1="93.6" x2="127.4" y2="71.2" stroke="#F0A0DC" stroke-width="5" stroke-linecap="round"/>
<circle cx="129.5" cy="93.6" r="9" fill="#CC00AA"/>
</svg>