<svg xmlns="http://www.w3.org/2000/svg" viewBox="0 0 300 300" width="300" height="300">
<circle cx="150" cy="150" r="50.5" fill="#111111"/>
<line x1="150.0" y1="42.0" x2="145.5" y2="68.1" stroke="#88DDA8" stroke-width="2.8" stroke-linecap="round"/>
<line x1="150.0" y1="42.0" x2="154.5" y2="68.1" stroke="#88DDA8" stroke-width="2.8" stroke-linecap="round"/>
<circle cx="150.0" cy="42.0" r="5.5" fill="#00C244"/>
<line x1="171.1" y1="44.1" x2="161.6" y2="68.8" stroke="#88DDA8" stroke-width="2.8" stroke-linecap="round"/>
<line x1="171.1" y1="44.1" x2="170.4" y2="70.6" stroke="#88DDA8" stroke-width="2.8" stroke-linecap="round"/>
<circle cx="171.1" cy="44.1" r="5.5" fill="#00C244"/>
<line x1="191.3" y1="50.2" x2="177.2" y2="72.6" stroke="#88DDA8" stroke-width="2.8" stroke-linecap="round"/>
<line x1="191.3" y1="50.2" x2="185.5" y2="76.1" stroke="#88DDA8" stroke-width="2.8" stroke-linecap="round"/>
<circle cx="191.3" cy="50.2" r="5.5" fill="#00C244"/>
<line x1="210.0" y1="60.2" x2="191.7" y2="79.4" stroke="#88DDA8" stroke-width="2.8" stroke-linecap="round"/>
<line x1="210.0" y1="60.2" x2="199.2" y2="84.4" stroke="#88DDA8" stroke-width="2.8" stroke-linecap="round"/>
<circle cx="210.0" cy="60.2" r="5.5" fill="#00C244"/>
<line x1="226.4" y1="73.6" x2="204.7" y2="88.9" stroke="#88DDA8" stroke-width="2.8" stroke-linecap="round"/>
<line x1="226.4" y1="73.6" x2="211.1" y2="95.3" stroke="#88DDA8" stroke-width="2.8" stroke-linecap="round"/>
<circle cx="226.4" cy="73.6" r="5.5" fill="#00C244"/>
<line x1="239.8" y1="90.0" x2="215.6" y2="100.8" stroke="#88DDA8" stroke-width="2.8" stroke-linecap="round"/>
<line x1="239.8" y1="90.0" x2="220.6" y2="108.3" stroke="#88DDA8" stroke-width="2.8" stroke-linecap="round"/>
<circle cx="239.8" cy="90.0" r="5.5" fill="#00C244"/>
<line x1="249.8" y1="108.7" x2="223.9" y2="114.5" stroke="#88DDA8" stroke-width="2.8" stroke-linecap="round"/>
<line x1="249.8" y1="108.7" x2="227.4" y2="122.8" stroke="#88DDA8" stroke-width="2.8" stroke-linecap="round"/>
<circle cx="249.8" cy="108.7" r="5.5" fill="#00C244"/>
<line x1="255.9" y1="128.9" x2="229.4" y2="129.6" stroke="#88DDA8" stroke-width="2.8" stroke-linecap="round"/>
<line x1="255.9" y1="128.9" x2="231.2" y2="138.4" stroke="#88DDA8" stroke-width="2.8" stroke-linecap="round"/>
<circle cx="255.9" cy="128.9" r="5.5" fill="#00C244"/>
<line x1="258.0" y1="150.0" x2="231.9" y2="145.5" stroke="#88DDA8" stroke-width="2.8" stroke-linecap="round"/>
<line x1="258.0" y1="150.0" x2="231.9" y2="154.5" stroke="#88DDA8" stroke-width="2.8" stroke-linecap="round"/>
<circle cx="258.0" cy="150.0" r="5.5" fill="#00C244"/>
<line x1="255.9" y1="171.1" x2="231.2" y2="161.6" stroke="#88DDA8" stroke-width="2.8" stroke-linecap="round"/>
<line x1="255.9" y1="171.1" x2="229.4" y2="170.4" stroke="#88DDA8" stroke-width="2.8" stroke-linecap="round"/>
<circle cx="255.9" cy="171.1" r="5.5" fill="#00C244"/>
<line x1="249.8" y1="191.3" x2="227.4" y2="177.2" stroke="#88DDA8" stroke-width="2.8" stroke-linecap="round"/>
<line x1="249.8" y1="191.3" x2="223.9" y2="185.5" stroke="#88DDA8" stroke-width="2.8" stroke-linecap="round"/>
<circle cx="249.8" cy="191.3" r="5.5" fill="#00C244"/>
<line x1="239.8" y1="210.0" x2="220.6" y2="191.7" stroke="#88DDA8" stroke-width="2.8" stroke-linecap="round"/>
<line x1="239.8" y1="210.0" x2="215.6" y2="199.2" stroke="#88DDA8" stroke-width="2.8" stroke-linecap="round"/>
<circle cx="239.8" cy="210.0" r="5.5" fill="#00C244"/>
<line x1="226.4" y1="226.4" x2="211.1" y2="204.7" stroke="#88DDA8" stroke-width="2.8" stroke-linecap="round"/>
<line x1="226.4" y1="226.4" x2="204.7" y2="211.1" stroke="#88DDA8" stroke-width="2.8" stroke-linecap="round"/>
<circle cx="226.4" cy="226.4" r="5.5" fill="#00C244"/>
<line x1="210.0" y1="239.8" x2="199.2" y2="215.6" stroke="#88DDA8" stroke-width="2.8" stroke-linecap="round"/>
<line x1="210.0" y1="239.8" x2="191.7" y2="220.6" stroke="#88DDA8" stroke-width="2.8" stroke-linecap="round"/>
<circle cx="210.0" cy="239.8" r="5.5" fill="#00C244"/>
<line x1="191.3" y1="249.8" x2="185.5" y2="223.9" stroke="#88DDA8" stroke-width="2.8" stroke-linecap="round"/>
<line x1="191.3" y1="249.8" x2="177.2" y2="227.4" stroke="#88DDA8" stroke-width="2.8" stroke-linecap="round"/>
<circle cx="191.3" cy="249.8" r="5.5" fill="#00C244"/>
<line x1="171.1" y1="255.9" x2="170.4" y2="229.4" stroke="#88DDA8" stroke-width="2.8" stroke-linecap="round"/>
<line x1="171.1" y1="255.9" x2="161.6" y2="231.2" stroke="#88DDA8" stroke-width="2.8" stroke-linecap="round"/>
<circle cx="171.1" cy="255.9" r="5.5" fill="#00C244"/>
<line x1="150.0" y1="258.0" x2="154.5" y2="231.9" stroke="#88DDA8" stroke-width="2.8" stroke-linecap="round"/>
<line x1="150.0" y1="258.0" x2="145.5" y2="231.9" stroke="#88DDA8" stroke-width="2.8" stroke-linecap="round"/>
<circle cx="150.0" cy="258.0" r="5.5" fill="#00C244"/>
<line x1="128.9" y1="255.9" x2="138.4" y2="231.2" stroke="#88DDA8" stroke-width="2.8" stroke-linecap="round"/>
<line x1="128.9" y1="255.9" x2="129.6" y2="229.4" stroke="#88DDA8" stroke-width="2.8" stroke-linecap="round"/>
<circle cx="128.9" cy="255.9" r="5.5" fill="#00C244"/>
<line x1="108.7" y1="249.8" x2="122.8" y2="227.4" stroke="#88DDA8" stroke-width="2.8" stroke-linecap="round"/>
<line x1="108.7" y1="249.8" x2="114.5" y2="223.9" stroke="#88DDA8" stroke-width="2.8" stroke-linecap="round"/>
<circle cx="108.7" cy="249.8" r="5.5" fill="#00C244"/>
<line x1="90.0" y1="239.8" x2="108.3" y2="220.6" stroke="#88DDA8" stroke-width="2.8" stroke-linecap="round"/>
<line x1="90.0" y1="239.8" x2="100.8" y2="215.6" stroke="#88DDA8" stroke-width="2.8" stroke-linecap="round"/>
<circle cx="90.0" cy="239.8" r="5.5" fill="#00C244"/>
<line x1="73.6" y1="226.4" x2="95.3" y2="211.1" stroke="#88DDA8" stroke-width="2.8" stroke-linecap="round"/>
<line x1="73.6" y1="226.4" x2="88.9" y2="204.7" stroke="#88DDA8" stroke-width="2.8" stroke-linecap="round"/>
<circle cx="73.6" cy="226.4" r="5.5" fill="#00C244"/>
<line x1="60.2" y1="210.0" x2="84.4" y2="199.2" stroke="#88DDA8" stroke-width="2.8" stroke-linecap="round"/>
<line x1="60.2" y1="210.0" x2="79.4" y2="191.7" stroke="#88DDA8" stroke-width="2.8" stroke-linecap="round"/>
<circle cx="60.2" cy="210.0" r="5.5" fill="#00C244"/>
<line x1="50.2" y1="191.3" x2="76.1" y2="185.5" stroke="#88DDA8" stroke-width="2.8" stroke-linecap="round"/>
<line x1="50.2" y1="191.3" x2="72.6" y2="177.2" stroke="#88DDA8" stroke-width="2.8" stroke-linecap="round"/>
<circle cx="50.2" cy="191.3" r="5.5" fill="#00C244"/>
<line x1="44.1" y1="171.1" x2="70.6" y2="170.4" stroke="#88DDA8" stroke-width="2.8" stroke-linecap="round"/>
<line x1="44.1" y1="171.1" x2="68.8" y2="161.6" stroke="#88DDA8" stroke-width="2.8" stroke-linecap="round"/>
<circle cx="44.1" cy="171.1" r="5.5" fill="#00C244"/>
<line x1="42.0" y1="150.0" x2="68.1" y2="154.5" stroke="#88DDA8" stroke-width="2.8" stroke-linecap="round"/>
<line x1="42.0" y1="150.0" x2="68.1" y2="145.5" stroke="#88DDA8" stroke-width="2.8" stroke-linecap="round"/>
<circle cx="42.0" cy="150.0" r="5.5" fill="#00C244"/>
<line x1="44.1" y1="128.9" x2="68.8" y2="138.4" stroke="#88DDA8" stroke-width="2.8" stroke-linecap="round"/>
<line x1="44.1" y1="128.9" x2="70.6" y2="129.6" stroke="#88DDA8" stroke-width="2.8" stroke-linecap="round"/>
<circle cx="44.1" cy="128.9" r="5.5" fill="#00C244"/>
<line x1="50.2" y1="108.7" x2="72.6" y2="122.8" stroke="#88DDA8" stroke-width="2.8" stroke-linecap="round"/>
<line x1="50.2" y1="108.7" x2="76.1" y2="114.5" stroke="#88DDA8" stroke-width="2.8" stroke-linecap="round"/>
<circle cx="50.2" cy="108.7" r="5.5" fill="#00C244"/>
<line x1="60.2" y1="90.0" x2="79.4" y2="108.3" stroke="#88DDA8" stroke-width="2.8" stroke-linecap="round"/>
<line x1="60.2" y1="90.0" x2="84.4" y2="100.8" stroke="#88DDA8" stroke-width="2.8" stroke-linecap="round"/>
<circle cx="60.2" cy="90.0" r="5.5" fill="#00C244"/>
<line x1="73.6" y1="73.6" x2="88.9" y2="95.3" stroke="#88DDA8" stroke-width="2.8" stroke-linecap="round"/>
<line x1="73.6" y1="73.6" x2="95.3" y2="88.9" stroke="#88DDA8" stroke-width="2.8" stroke-linecap="round"/>
<circle cx="73.6" cy="73.6" r="5.5" fill="#00C244"/>
<line x1="90.0" y1="60.2" x2="100.8" y2="84.4" stroke="#88DDA8" stroke-width="2.8" stroke-linecap="round"/>
<line x1="90.0" y1="60.2" x2="108.3" y2="79.4" stroke="#88DDA8" stroke-width="2.8" stroke-linecap="round"/>
<circle cx="90.0" cy="60.2" r="5.5" fill="#00C244"/>
<line x1="108.7" y1="50.2" x2="114.5" y2="76.1" stroke="#88DDA8" stroke-width="2.8" stroke-linecap="round"/>
<line x1="108.7" y1="50.2" x2="122.8" y2="72.6" stroke="#88DDA8" stroke-width="2.8" stroke-linecap="round"/>
<circle cx="108.7" cy="50.2" r="5.5" fill="#00C244"/>
<line x1="128.9" y1="44.1" x2="129.6" y2="70.6" stroke="#88DDA8" stroke-width="2.8" stroke-linecap="round"/>
<line x1="128.9" y1="44.1" x2="138.4" y2="68.8" stroke="#88DDA8" stroke-width="2.8" stroke-linecap="round"/>
<circle cx="128.9" cy="44.1" r="5.5" fill="#00C244"/>
<line x1="159.5" y1="92.8" x2="158.0" y2="66.4" stroke="#F0A0DC" stroke-width="2.8" stroke-linecap="round"/>
<line x1="159.5" y1="92.8" x2="169.6" y2="68.3" stroke="#F0A0DC" stroke-width="2.8" stroke-linecap="round"/>
<circle cx="159.5" cy="92.8" r="5.5" fill="#CC00AA"/>
<line x1="177.6" y1="99.0" x2="184.7" y2="73.5" stroke="#F0A0DC" stroke-width="2.8" stroke-linecap="round"/>
<line x1="177.6" y1="99.0" x2="195.0" y2="79.1" stroke="#F0A0DC" stroke-width="2.8" stroke-linecap="round"/>
<circle cx="177.6" cy="99.0" r="5.5" fill="#CC00AA"/>
<line x1="192.7" y1="110.7" x2="207.7" y2="88.9" stroke="#F0A0DC" stroke-width="2.8" stroke-linecap="round"/>
<line x1="192.7" y1="110.7" x2="215.6" y2="97.6" stroke="#F0A0DC" stroke-width="2.8" stroke-linecap="round"/>
<circle cx="192.7" cy="110.7" r="5.5" fill="#CC00AA"/>
<line x1="203.1" y1="126.7" x2="224.4" y2="111.0" stroke="#F0A0DC" stroke-width="2.8" stroke-linecap="round"/>
<line x1="203.1" y1="126.7" x2="229.1" y2="121.7" stroke="#F0A0DC" stroke-width="2.8" stroke-linecap="round"/>
<circle cx="203.1" cy="126.7" r="5.5" fill="#CC00AA"/>
<line x1="207.8" y1="145.2" x2="233.0" y2="137.2" stroke="#F0A0DC" stroke-width="2.8" stroke-linecap="round"/>
<line x1="207.8" y1="145.2" x2="234.0" y2="148.9" stroke="#F0A0DC" stroke-width="2.8" stroke-linecap="round"/>
<circle cx="207.8" cy="145.2" r="5.5" fill="#CC00AA"/>
<line x1="206.2" y1="164.2" x2="232.7" y2="164.9" stroke="#F0A0DC" stroke-width="2.8" stroke-linecap="round"/>
<line x1="206.2" y1="164.2" x2="229.8" y2="176.3" stroke="#F0A0DC" stroke-width="2.8" stroke-linecap="round"/>
<circle cx="206.2" cy="164.2" r="5.5" fill="#CC00AA"/>
<line x1="198.6" y1="181.7" x2="223.4" y2="190.9" stroke="#F0A0DC" stroke-width="2.8" stroke-linecap="round"/>
<line x1="198.6" y1="181.7" x2="216.9" y2="200.7" stroke="#F0A0DC" stroke-width="2.8" stroke-linecap="round"/>
<circle cx="198.6" cy="181.7" r="5.5" fill="#CC00AA"/>
<line x1="185.6" y1="195.8" x2="206.1" y2="212.5" stroke="#F0A0DC" stroke-width="2.8" stroke-linecap="round"/>
<line x1="185.6" y1="195.8" x2="196.8" y2="219.7" stroke="#F0A0DC" stroke-width="2.8" stroke-linecap="round"/>
<circle cx="185.6" cy="195.8" r="5.5" fill="#CC00AA"/>
<line x1="168.8" y1="204.9" x2="182.8" y2="227.3" stroke="#F0A0DC" stroke-width="2.8" stroke-linecap="round"/>
<line x1="168.8" y1="204.9" x2="171.7" y2="231.2" stroke="#F0A0DC" stroke-width="2.8" stroke-linecap="round"/>
<circle cx="168.8" cy="204.9" r="5.5" fill="#CC00AA"/>
<line x1="150.0" y1="208.0" x2="155.9" y2="233.8" stroke="#F0A0DC" stroke-width="2.8" stroke-linecap="round"/>
<line x1="150.0" y1="208.0" x2="144.1" y2="233.8" stroke="#F0A0DC" stroke-width="2.8" stroke-linecap="round"/>
<circle cx="150.0" cy="208.0" r="5.5" fill="#CC00AA"/>
<line x1="131.2" y1="204.9" x2="128.3" y2="231.2" stroke="#F0A0DC" stroke-width="2.8" stroke-linecap="round"/>
<line x1="131.2" y1="204.9" x2="117.2" y2="227.3" stroke="#F0A0DC" stroke-width="2.8" stroke-linecap="round"/>
<circle cx="131.2" cy="204.9" r="5.5" fill="#CC00AA"/>
<line x1="114.4" y1="195.8" x2="103.2" y2="219.7" stroke="#F0A0DC" stroke-width="2.8" stroke-linecap="round"/>
<line x1="114.4" y1="195.8" x2="93.9" y2="212.5" stroke="#F0A0DC" stroke-width="2.8" stroke-linecap="round"/>
<circle cx="114.4" cy="195.8" r="5.5" fill="#CC00AA"/>
<line x1="101.4" y1="181.7" x2="83.1" y2="200.7" stroke="#F0A0DC" stroke-width="2.8" stroke-linecap="round"/>
<line x1="101.4" y1="181.7" x2="76.6" y2="190.9" stroke="#F0A0DC" stroke-width="2.8" stroke-linecap="round"/>
<circle cx="101.4" cy="181.7" r="5.5" fill="#CC00AA"/>
<line x1="93.8" y1="164.2" x2="70.2" y2="176.3" stroke="#F0A0DC" stroke-width="2.8" stroke-linecap="round"/>
<line x1="93.8" y1="164.2" x2="67.3" y2="164.9" stroke="#F0A0DC" stroke-width="2.8" stroke-linecap="round"/>
<circle cx="93.8" cy="164.2" r="5.5" fill="#CC00AA"/>
<line x1="92.2" y1="145.2" x2="66.0" y2="148.9" stroke="#F0A0DC" stroke-width="2.8" stroke-linecap="round"/>
<line x1="92.2" y1="145.2" x2="67.0" y2="137.2" stroke="#F0A0DC" stroke-width="2.8" stroke-linecap="round"/>
<circle cx="92.2" cy="145.2" r="5.5" fill="#CC00AA"/>
<line x1="96.9" y1="126.7" x2="70.9" y2="121.7" stroke="#F0A0DC" stroke-width="2.8" stroke-linecap="round"/>
<line x1="96.9" y1="126.7" x2="75.6" y2="111.0" stroke="#F0A0DC" stroke-width="2.8" stroke-linecap="round"/>
<circle cx="96.9" cy="126.7" r="5.5" fill="#CC00AA"/>
<line x1="107.3" y1="110.7" x2="84.4" y2="97.6" stroke="#F0A0DC" stroke-width="2.8" stroke-linecap="round"/>
<line x1="107.3" y1="110.7" x2="92.3" y2="88.9" stroke="#F0A0DC" stroke-width="2.8" stroke-linecap="round"/>
<circle cx="107.3" cy="110.7" r="5.5" fill="#CC00AA"/>
<line x1="122.4" y1="99.0" x2="105.0" y2="79.1" stroke="#F0A0DC" stroke-width="2.8" stroke-linecap="round"/>
<line x1="122.4" y1="99.0" x2="115.3" y2="73.5" stroke="#F0A0DC" stroke-width="2.8" stroke-linecap="round"/>
<circle cx="122.4" cy="99.0" r="5.5" fill="#CC00AA"/>
<line x1="140.5" y1="92.8" x2="130.4" y2="68.3" stroke="#F0A0DC" stroke-width="2.8" stroke-linecap="round"/>
<line x1="140.5" y1="92.8" x2="142.0" y2="66.4" stroke="#F0A0DC" stroke-width="2.8" stroke-linecap="round"/>
<circle cx="140.5" cy="92.8" r="5.5" fill="#CC00AA"/>
<text x="150" y="130" text-anchor="middle" dominant-baseline="middle" font-family="Century Gothic, Futura, Trebuchet MS, Arial, sans-serif" font-size="28" font-weight="bold" fill="#F0F0F0" textLength="250" lengthAdjust="spacingAndGlyphs">HEBERLE LAB</text>
<text x="150" y="152" text-anchor="middle" dominant-baseline="middle" font-family="Century Gothic, Futura, Trebuchet MS, Arial, sans-serif" font-size="11" opacity="0.85" fill="#F0F0F0">Advanced</text>
<text x="150" y="165" text-anchor="middle" dominant-baseline="middle" font-family="Century Gothic, Futura, Trebuchet MS, Arial, sans-serif" font-size="11" opacity="0.85" fill="#F0F0F0">Membrane</text>
<text x="150" y="178" text-anchor="middle" dominant-baseline="middle" font-family="Century Gothic, Futura, Trebuchet MS, Arial, sans-serif" font-size="11" opacity="0.85" fill="#F0F0F0">Biophysics</text>
</svg>