<svg xmlns="http://www.w3.org/2000/svg" viewBox="0 0 461 300" width="461" height="300">
<circle cx="230" cy="150" r="50.5" fill="#111111"/>
<line x1="230.0" y1="42.0" x2="225.5" y2="68.1" stroke="#88DDA8" stroke-width="2.8" stroke-linecap="round"/>
<line x1="230.0" y1="42.0" x2="234.5" y2="68.1" stroke="#88DDA8" stroke-width="2.8" stroke-linecap="round"/>
<circle cx="230.0" cy="42.0" r="5.5" fill="#00C244"/>
<line x1="251.1" y1="44.1" x2="241.6" y2="68.8" stroke="#88DDA8" stroke-width="2.8" stroke-linecap="round"/>
<line x1="251.1" y1="44.1" x2="250.4" y2="70.6" stroke="#88DDA8" stroke-width="2.8" stroke-linecap="round"/>
<circle cx="251.1" cy="44.1" r="5.5" fill="#00C244"/>
<line x1="271.3" y1="50.2" x2="257.2" y2="72.6" stroke="#88DDA8" stroke-width="2.8" stroke-linecap="round"/>
<line x1="271.3" y1="50.2" x2="265.5" y2="76.1" stroke="#88DDA8" stroke-width="2.8" stroke-linecap="round"/>
<circle cx="271.3" cy="50.2" r="5.5" fill="#00C244"/>
<line x1="290.0" y1="60.2" x2="271.7" y2="79.4" stroke="#88DDA8" stroke-width="2.8" stroke-linecap="round"/>
<line x1="290.0" y1="60.2" x2="279.2" y2="84.4" stroke="#88DDA8" stroke-width="2.8" stroke-linecap="round"/>
<circle cx="290.0" cy="60.2" r="5.5" fill="#00C244"/>
<line x1="306.4" y1="73.6" x2="284.7" y2="88.9" stroke="#88DDA8" stroke-width="2.8" stroke-linecap="round"/>
<line x1="306.4" y1="73.6" x2="291.1" y2="95.3" stroke="#88DDA8" stroke-width="2.8" stroke-linecap="round"/>
<circle cx="306.4" cy="73.6" r="5.5" fill="#00C244"/>
<line x1="319.8" y1="90.0" x2="295.6" y2="100.8" stroke="#88DDA8" stroke-width="2.8" stroke-linecap="round"/>
<line x1="319.8" y1="90.0" x2="300.6" y2="108.3" stroke="#88DDA8" stroke-width="2.8" stroke-linecap="round"/>
<circle cx="319.8" cy="90.0" r="5.5" fill="#00C244"/>
<line x1="329.8" y1="108.7" x2="303.9" y2="114.5" stroke="#88DDA8" stroke-width="2.8" stroke-linecap="round"/>
<line x1="329.8" y1="108.7" x2="307.4" y2="122.8" stroke="#88DDA8" stroke-width="2.8" stroke-linecap="round"/>
<circle cx="329.8" cy="108.7" r="5.5" fill="#00C244"/>
<line x1="335.9" y1="128.9" x2="309.4" y2="129.6" stroke="#88DDA8" stroke-width="2.8" stroke-linecap="round"/>
<line x1="335.9" y1="128.9" x2="311.2" y2="138.4" stroke="#88DDA8" stroke-width="2.8" stroke-linecap="round"/>
<circle cx="335.9" cy="128.9" r="5.5" fill="#00C244"/>
<line x1="338.0" y1="150.0" x2="311.9" y2="145.5" stroke="#88DDA8" stroke-width="2.8" stroke-linecap="round"/>
<line x1="338.0" y1="150.0" x2="311.9" y2="154.5" stroke="#88DDA8" stroke-width="2.8" stroke-linecap="round"/>
<circle cx="338.0" cy="150.0" r="5.5" fill="#00C244"/>
<line x1="335.9" y1="171.1" x2="311.2" y2="161.6" stroke="#88DDA8" stroke-width="2.8" stroke-linecap="round"/>
<line x1="335.9" y1="171.1" x2="309.4" y2="170.4" stroke="#88DDA8" stroke-width="2.8" stroke-linecap="round"/>
<circle cx="335.9" cy="171.1" r="5.5" fill="#00C244"/>
<line x1="329.8" y1="191.3" x2="307.4" y2="177.2" stroke="#88DDA8" stroke-width="2.8" stroke-linecap="round"/>
<line x1="329.8" y1="191.3" x2="303.9" y2="185.5" stroke="#88DDA8" stroke-width="2.8" stroke-linecap="round"/>
<circle cx="329.8" cy="191.3" r="5.5" fill="#00C244"/>
<line x1="319.8" y1="210.0" x2="300.6" y2="191.7" stroke="#88DDA8" stroke-width="2.8" stroke-linecap="round"/>
<line x1="319.8" y1="210.0" x2="295.6" y2="199.2" stroke="#88DDA8" stroke-width="2.8" stroke-linecap="round"/>
<circle cx="319.8" cy="210.0" r="5.5" fill="#00C244"/>
<line x1="306.4" y1="226.4" x2="291.1" y2="204.7" stroke="#88DDA8" stroke-width="2.8" stroke-linecap="round"/>
<line x1="306.4" y1="226.4" x2="284.7" y2="211.1" stroke="#88DDA8" stroke-width="2.8" stroke-linecap="round"/>
<circle cx="306.4" cy="226.4" r="5.5" fill="#00C244"/>
<line x1="290.0" y1="239.8" x2="279.2" y2="215.6" stroke="#88DDA8" stroke-width="2.8" stroke-linecap="round"/>
<line x1="290.0" y1="239.8" x2="271.7" y2="220.6" stroke="#88DDA8" stroke-width="2.8" stroke-linecap="round"/>
<circle cx="290.0" cy="239.8" r="5.5" fill="#00C244"/>
<line x1="271.3" y1="249.8" x2="265.5" y2="223.9" stroke="#88DDA8" stroke-width="2.8" stroke-linecap="round"/>
<line x1="271.3" y1="249.8" x2="257.2" y2="227.4" stroke="#88DDA8" stroke-width="2.8" stroke-linecap="round"/>
<circle cx="271.3" cy="249.8" r="5.5" fill="#00C244"/>
<line x1="251.1" y1="255.9" x2="250.4" y2="229.4" stroke="#88DDA8" stroke-width="2.8" stroke-linecap="round"/>
<line x1="251.1" y1="255.9" x2="241.6" y2="231.2" stroke="#88DDA8" stroke-width="2.8" stroke-linecap="round"/>
<circle cx="251.1" cy="255.9" r="5.5" fill="#00C244"/>
<line x1="230.0" y1="258.0" x2="234.5" y2="231.9" stroke="#88DDA8" stroke-width="2.8" stroke-linecap="round"/>
<line x1="230.0" y1="258.0" x2="225.5" y2="231.9" stroke="#88DDA8" stroke-width="2.8" stroke-linecap="round"/>
<circle cx="230.0" cy="258.0" r="5.5" fill="#00C244"/>
<line x1="208.9" y1="255.9" x2="218.4" y2="231.2" stroke="#88DDA8" stroke-width="2.8" stroke-linecap="round"/>
<line x1="208.9" y1="255.9" x2="209.6" y2="229.4" stroke="#88DDA8" stroke-width="2.8" stroke-linecap="round"/>
<circle cx="208.9" cy="255.9" r="5.5" fill="#00C244"/>
<line x1="188.7" y1="249.8" x2="202.8" y2="227.4" stroke="#88DDA8" stroke-width="2.8" stroke-linecap="round"/>
<line x1="188.7" y1="249.8" x2="194.5" y2="223.9" stroke="#88DDA8" stroke-width="2.8" stroke-linecap="round"/>
<circle cx="188.7" cy="249.8" r="5.5" fill="#00C244"/>
<line x1="170.0" y1="239.8" x2="188.3" y2="220.6" stroke="#88DDA8" stroke-width="2.8" stroke-linecap="round"/>
<line x1="170.0" y1="239.8" x2="180.8" y2="215.6" stroke="#88DDA8" stroke-width="2.8" stroke-linecap="round"/>
<circle cx="170.0" cy="239.8" r="5.5" fill="#00C244"/>
<line x1="153.6" y1="226.4" x2="175.3" y2="211.1" stroke="#88DDA8" stroke-width="2.8" stroke-linecap="round"/>
<line x1="153.6" y1="226.4" x2="168.9" y2="204.7" stroke="#88DDA8" stroke-width="2.8" stroke-linecap="round"/>
<circle cx="153.6" cy="226.4" r="5.5" fill="#00C244"/>
<line x1="140.2" y1="210.0" x2="164.4" y2="199.2" stroke="#88DDA8" stroke-width="2.8" stroke-linecap="round"/>
<line x1="140.2" y1="210.0" x2="159.4" y2="191.7" stroke="#88DDA8" stroke-width="2.8" stroke-linecap="round"/>
<circle cx="140.2" cy="210.0" r="5.5" fill="#00C244"/>
<line x1="130.2" y1="191.3" x2="156.1" y2="185.5" stroke="#88DDA8" stroke-width="2.8" stroke-linecap="round"/>
<line x1="130.2" y1="191.3" x2="152.6" y2="177.2" stroke="#88DDA8" stroke-width="2.8" stroke-linecap="round"/>
<circle cx="130.2" cy="191.3" r="5.5" fill="#00C244"/>
<line x1="124.1" y1="171.1" x2="150.6" y2="170.4" stroke="#88DDA8" stroke-width="2.8" stroke-linecap="round"/>
<line x1="124.1" y1="171.1" x2="148.8" y2="161.6" stroke="#88DDA8" stroke-width="2.8" stroke-linecap="round"/>
<circle cx="124.1" cy="171.1" r="5.5" fill="#00C244"/>
<line x1="122.0" y1="150.0" x2="148.1" y2="154.5" stroke="#88DDA8" stroke-width="2.8" stroke-linecap="round"/>
<line x1="122.0" y1="150.0" x2="148.1" y2="145.5" stroke="#88DDA8" stroke-width="2.8" stroke-linecap="round"/>
<circle cx="122.0" cy="150.0" r="5.5" fill="#00C244"/>
<line x1="124.1" y1="128.9" x2="148.8" y2="138.4" stroke="#88DDA8" stroke-width="2.8" stroke-linecap="round"/>
<line x1="124.1" y1="128.9" x2="150.6" y2="129.6" stroke="#88DDA8" stroke-width="2.8" stroke-linecap="round"/>
<circle cx="124.1" cy="128.9" r="5.5" fill="#00C244"/>
<line x1="130.2" y1="108.7" x2="152.6" y2="122.8" stroke="#88DDA8" stroke-width="2.8" stroke-linecap="round"/>
<line x1="130.2" y1="108.7" x2="156.1" y2="114.5" stroke="#88DDA8" stroke-width="2.8" stroke-linecap="round"/>
<circle cx="130.2" cy="108.7" r="5.5" fill="#00C244"/>
<line x1="140.2" y1="90.0" x2="159.4" y2="108.3" stroke="#88DDA8" stroke-width="2.8" stroke-linecap="round"/>
<line x1="140.2" y1="90.0" x2="164.4" y2="100.8" stroke="#88DDA8" stroke-width="2.8" stroke-linecap="round"/>
<circle cx="140.2" cy="90.0" r="5.5" fill="#00C244"/>
<line x1="153.6" y1="73.6" x2="168.9" y2="95.3" stroke="#88DDA8" stroke-width="2.8" stroke-linecap="round"/>
<line x1="153.6" y1="73.6" x2="175.3" y2="88.9" stroke="#88DDA8" stroke-width="2.8" stroke-linecap="round"/>
<circle cx="153.6" cy="73.6" r="5.5" fill="#00C244"/>
<line x1="170.0" y1="60.2" x2="180.8" y2="84.4" stroke="#88DDA8" stroke-width="2.8" stroke-linecap="round"/>
<line x1="170.0" y1="60.2" x2="188.3" y2="79.4" stroke="#88DDA8" stroke-width="2.8" stroke-linecap="round"/>
<circle cx="170.0" cy="60.2" r="5.5" fill="#00C244"/>
<line x1="188.7" y1="50.2" x2="194.5" y2="76.1" stroke="#88DDA8" stroke-width="2.8" stroke-linecap="round"/>
<line x1="188.7" y1="50.2" x2="202.8" y2="72.6" stroke="#88DDA8" stroke-width="2.8" stroke-linecap="round"/>
<circle cx="188.7" cy="50.2" r="5.5" fill="#00C244"/>
<line x1="208.9" y1="44.1" x2="209.6" y2="70.6" stroke="#88DDA8" stroke-width="2.8" stroke-linecap="round"/>
<line x1="208.9" y1="44.1" x2="218.4" y2="68.8" stroke="#88DDA8" stroke-width="2.8" stroke-linecap="round"/>
<circle cx="208.9" cy="44.1" r="5.5" fill="#00C244"/>
<line x1="239.5" y1="92.8" x2="238.0" y2="66.4" stroke="#F0A0DC" stroke-width="2.8" stroke-linecap="round"/>
<line x1="239.5" y1="92.8" x2="249.6" y2="68.3" stroke="#F0A0DC" stroke-width="2.8" stroke-linecap="round"/>
<circle cx="239.5" cy="92.8" r="5.5" fill="#CC00AA"/>
<line x1="257.6" y1="99.0" x2="264.7" y2="73.5" stroke="#F0A0DC" stroke-width="2.8" stroke-linecap="round"/>
<line x1="257.6" y1="99.0" x2="275.0" y2="79.1" stroke="#F0A0DC" stroke-width="2.8" stroke-linecap="round"/>
<circle cx="257.6" cy="99.0" r="5.5" fill="#CC00AA"/>
<line x1="272.7" y1="110.7" x2="287.7" y2="88.9" stroke="#F0A0DC" stroke-width="2.8" stroke-linecap="round"/>
<line x1="272.7" y1="110.7" x2="295.6" y2="97.6" stroke="#F0A0DC" stroke-width="2.8" stroke-linecap="round"/>
<circle cx="272.7" cy="110.7" r="5.5" fill="#CC00AA"/>
<line x1="283.1" y1="126.7" x2="304.4" y2="111.0" stroke="#F0A0DC" stroke-width="2.8" stroke-linecap="round"/>
<line x1="283.1" y1="126.7" x2="309.1" y2="121.7" stroke="#F0A0DC" stroke-width="2.8" stroke-linecap="round"/>
<circle cx="283.1" cy="126.7" r="5.5" fill="#CC00AA"/>
<line x1="287.8" y1="145.2" x2="313.0" y2="137.2" stroke="#F0A0DC" stroke-width="2.8" stroke-linecap="round"/>
<line x1="287.8" y1="145.2" x2="314.0" y2="148.9" stroke="#F0A0DC" stroke-width="2.8" stroke-linecap="round"/>
<circle cx="287.8" cy="145.2" r="5.5" fill="#CC00AA"/>
<line x1="286.2" y1="164.2" x2="312.7" y2="164.9" stroke="#F0A0DC" stroke-width="2.8" stroke-linecap="round"/>
<line x1="286.2" y1="164.2" x2="309.8" y2="176.3" stroke="#F0A0DC" stroke-width="2.8" stroke-linecap="round"/>
<circle cx="286.2" cy="164.2" r="5.5" fill="#CC00AA"/>
<line x1="278.6" y1="181.7" x2="303.4" y2="190.9" stroke="#F0A0DC" stroke-width="2.8" stroke-linecap="round"/>
<line x1="278.6" y1="181.7" x2="296.9" y2="200.7" stroke="#F0A0DC" stroke-width="2.8" stroke-linecap="round"/>
<circle cx="278.6" cy="181.7" r="5.5" fill="#CC00AA"/>
<line x1="265.6" y1="195.8" x2="286.1" y2="212.5" stroke="#F0A0DC" stroke-width="2.8" stroke-linecap="round"/>
<line x1="265.6" y1="195.8" x2="276.8" y2="219.7" stroke="#F0A0DC" stroke-width="2.8" stroke-linecap="round"/>
<circle cx="265.6" cy="195.8" r="5.5" fill="#CC00AA"/>
<line x1="248.8" y1="204.9" x2="262.8" y2="227.3" stroke="#F0A0DC" stroke-width="2.8" stroke-linecap="round"/>
<line x1="248.8" y1="204.9" x2="251.7" y2="231.2" stroke="#F0A0DC" stroke-width="2.8" stroke-linecap="round"/>
<circle cx="248.8" cy="204.9" r="5.5" fill="#CC00AA"/>
<line x1="230.0" y1="208.0" x2="235.9" y2="233.8" stroke="#F0A0DC" stroke-width="2.8" stroke-linecap="round"/>
<line x1="230.0" y1="208.0" x2="224.1" y2="233.8" stroke="#F0A0DC" stroke-width="2.8" stroke-linecap="round"/>
<circle cx="230.0" cy="208.0" r="5.5" fill="#CC00AA"/>
<line x1="211.2" y1="204.9" x2="208.3" y2="231.2" stroke="#F0A0DC" stroke-width="2.8" stroke-linecap="round"/>
<line x1="211.2" y1="204.9" x2="197.2" y2="227.3" stroke="#F0A0DC" stroke-width="2.8" stroke-linecap="round"/>
<circle cx="211.2" cy="204.9" r="5.5" fill="#CC00AA"/>
<line x1="194.4" y1="195.8" x2="183.2" y2="219.7" stroke="#F0A0DC" stroke-width="2.8" stroke-linecap="round"/>
<line x1="194.4" y1="195.8" x2="173.9" y2="212.5" stroke="#F0A0DC" stroke-width="2.8" stroke-linecap="round"/>
<circle cx="194.4" cy="195.8" r="5.5" fill="#CC00AA"/>
<line x1="181.4" y1="181.7" x2="163.1" y2="200.7" stroke="#F0A0DC" stroke-width="2.8" stroke-linecap="round"/>
<line x1="181.4" y1="181.7" x2="156.6" y2="190.9" stroke="#F0A0DC" stroke-width="2.8" stroke-linecap="round"/>
<circle cx="181.4" cy="181.7" r="5.5" fill="#CC00AA"/>
<line x1="173.8" y1="164.2" x2="150.2" y2="176.3" stroke="#F0A0DC" stroke-width="2.8" stroke-linecap="round"/>
<line x1="173.8" y1="164.2" x2="147.3" y2="164.9" stroke="#F0A0DC" stroke-width="2.8" stroke-linecap="round"/>
<circle cx="173.8" cy="164.2" r="5.5" fill="#CC00AA"/>
<line x1="172.2" y1="145.2" x2="146.0" y2="148.9" stroke="#F0A0DC" stroke-width="2.8" stroke-linecap="round"/>
<line x1="172.2" y1="145.2" x2="147.0" y2="137.2" stroke="#F0A0DC" stroke-width="2.8" stroke-linecap="round"/>
<circle cx="172.2" cy="145.2" r="5.5" fill="#CC00AA"/>
<line x1="176.9" y1="126.7" x2="150.9" y2="121.7" stroke="#F0A0DC" stroke-width="2.8" stroke-linecap="round"/>
<line x1="176.9" y1="126.7" x2="155.6" y2="111.0" stroke="#F0A0DC" stroke-width="2.8" stroke-linecap="round"/>
<circle cx="176.9" cy="126.7" r="5.5" fill="#CC00AA"/>
<line x1="187.3" y1="110.7" x2="164.4" y2="97.6" stroke="#F0A0DC" stroke-width="2.8" stroke-linecap="round"/>
<line x1="187.3" y1="110.7" x2="172.3" y2="88.9" stroke="#F0A0DC" stroke-width="2.8" stroke-linecap="round"/>
<circle cx="187.3" cy="110.7" r="5.5" fill="#CC00AA"/>
<line x1="202.4" y1="99.0" x2="185.0" y2="79.1" stroke="#F0A0DC" stroke-width="2.8" stroke-linecap="round"/>
<line x1="202.4" y1="99.0" x2="195.3" y2="73.5" stroke="#F0A0DC" stroke-width="2.8" stroke-linecap="round"/>
<circle cx="202.4" cy="99.0" r="5.5" fill="#CC00AA"/>
<line x1="220.5" y1="92.8" x2="210.4" y2="68.3" stroke="#F0A0DC" stroke-width="2.8" stroke-linecap="round"/>
<line x1="220.5" y1="92.8" x2="222.0" y2="66.4" stroke="#F0A0DC" stroke-width="2.8" stroke-linecap="round"/>
<circle cx="220.5" cy="92.8" r="5.5" fill="#CC00AA"/>
<text x="230" y="150" text-anchor="middle" dominant-baseline="middle" font-family="Century Gothic, Futura, Trebuchet MS, Arial, sans-serif" font-size="70" font-weight="bold" fill="#F0F0F0" textLength="371" lengthAdjust="spacingAndGlyphs">HEBERLE LAB</text>
</svg>