<svg xmlns="http://www.w3.org/2000/svg" viewBox="0 0 380 300" width="380" height="300">
<circle cx="190" cy="150" r="50.5" fill="#111111"/>
<line x1="190.0" y1="42.0" x2="185.5" y2="68.1" stroke="#88DDA8" stroke-width="2.8" stroke-linecap="round"/>
<line x1="190.0" y1="42.0" x2="194.5" y2="68.1" stroke="#88DDA8" stroke-width="2.8" stroke-linecap="round"/>
<circle cx="190.0" cy="42.0" r="5.5" fill="#00C244"/>
<line x1="211.1" y1="44.1" x2="201.6" y2="68.8" stroke="#88DDA8" stroke-width="2.8" stroke-linecap="round"/>
<line x1="211.1" y1="44.1" x2="210.4" y2="70.6" stroke="#88DDA8" stroke-width="2.8" stroke-linecap="round"/>
<circle cx="211.1" cy="44.1" r="5.5" fill="#00C244"/>
<line x1="231.3" y1="50.2" x2="217.2" y2="72.6" stroke="#88DDA8" stroke-width="2.8" stroke-linecap="round"/>
<line x1="231.3" y1="50.2" x2="225.5" y2="76.1" stroke="#88DDA8" stroke-width="2.8" stroke-linecap="round"/>
<circle cx="231.3" cy="50.2" r="5.5" fill="#00C244"/>
<line x1="250.0" y1="60.2" x2="231.7" y2="79.4" stroke="#88DDA8" stroke-width="2.8" stroke-linecap="round"/>
<line x1="250.0" y1="60.2" x2="239.2" y2="84.4" stroke="#88DDA8" stroke-width="2.8" stroke-linecap="round"/>
<circle cx="250.0" cy="60.2" r="5.5" fill="#00C244"/>
<line x1="266.4" y1="73.6" x2="244.7" y2="88.9" stroke="#88DDA8" stroke-width="2.8" stroke-linecap="round"/>
<line x1="266.4" y1="73.6" x2="251.1" y2="95.3" stroke="#88DDA8" stroke-width="2.8" stroke-linecap="round"/>
<circle cx="266.4" cy="73.6" r="5.5" fill="#00C244"/>
<line x1="279.8" y1="90.0" x2="255.6" y2="100.8" stroke="#88DDA8" stroke-width="2.8" stroke-linecap="round"/>
<line x1="279.8" y1="90.0" x2="260.6" y2="108.3" stroke="#88DDA8" stroke-width="2.8" stroke-linecap="round"/>
<circle cx="279.8" cy="90.0" r="5.5" fill="#00C244"/>
<line x1="289.8" y1="108.7" x2="263.9" y2="114.5" stroke="#88DDA8" stroke-width="2.8" stroke-linecap="round"/>
<line x1="289.8" y1="108.7" x2="267.4" y2="122.8" stroke="#88DDA8" stroke-width="2.8" stroke-linecap="round"/>
<circle cx="289.8" cy="108.7" r="5.5" fill="#00C244"/>
<line x1="295.9" y1="128.9" x2="269.4" y2="129.6" stroke="#88DDA8" stroke-width="2.8" stroke-linecap="round"/>
<line x1="295.9" y1="128.9" x2="271.2" y2="138.4" stroke="#88DDA8" stroke-width="2.8" stroke-linecap="round"/>
<circle cx="295.9" cy="128.9" r="5.5" fill="#00C244"/>
<line x1="298.0" y1="150.0" x2="271.9" y2="145.5" stroke="#88DDA8" stroke-width="2.8" stroke-linecap="round"/>
<line x1="298.0" y1="150.0" x2="271.9" y2="154.5" stroke="#88DDA8" stroke-width="2.8" stroke-linecap="round"/>
<circle cx="298.0" cy="150.0" r="5.5" fill="#00C244"/>
<line x1="295.9" y1="171.1" x2="271.2" y2="161.6" stroke="#88DDA8" stroke-width="2.8" stroke-linecap="round"/>
<line x1="295.9" y1="171.1" x2="269.4" y2="170.4" stroke="#88DDA8" stroke-width="2.8" stroke-linecap="round"/>
<circle cx="295.9" cy="171.1" r="5.5" fill="#00C244"/>
<line x1="289.8" y1="191.3" x2="267.4" y2="177.2" stroke="#88DDA8" stroke-width="2.8" stroke-linecap="round"/>
<line x1="289.8" y1="191.3" x2="263.9" y2="185.5" stroke="#88DDA8" stroke-width="2.8" stroke-linecap="round"/>
<circle cx="289.8" cy="191.3" r="5.5" fill="#00C244"/>
<line x1="279.8" y1="210.0" x2="260.6" y2="191.7" stroke="#88DDA8" stroke-width="2.8" stroke-linecap="round"/>
<line x1="279.8" y1="210.0" x2="255.6" y2="199.2" stroke="#88DDA8" stroke-width="2.8" stroke-linecap="round"/>
<circle cx="279.8" cy="210.0" r="5.5" fill="#00C244"/>
<line x1="266.4" y1="226.4" x2="251.1" y2="204.7" stroke="#88DDA8" stroke-width="2.8" stroke-linecap="round"/>
<line x1="266.4" y1="226.4" x2="244.7" y2="211.1" stroke="#88DDA8" stroke-width="2.8" stroke-linecap="round"/>
<circle cx="266.4" cy="226.4" r="5.5" fill="#00C244"/>
<line x1="250.0" y1="239.8" x2="239.2" y2="215.6" stroke="#88DDA8" stroke-width="2.8" stroke-linecap="round"/>
<line x1="250.0" y1="239.8" x2="231.7" y2="220.6" stroke="#88DDA8" stroke-width="2.8" stroke-linecap="round"/>
<circle cx="250.0" cy="239.8" r="5.5" fill="#00C244"/>
<line x1="231.3" y1="249.8" x2="225.5" y2="223.9" stroke="#88DDA8" stroke-width="2.8" stroke-linecap="round"/>
<line x1="231.3" y1="249.8" x2="217.2" y2="227.4" stroke="#88DDA8" stroke-width="2.8" stroke-linecap="round"/>
<circle cx="231.3" cy="249.8" r="5.5" fill="#00C244"/>
<line x1="211.1" y1="255.9" x2="210.4" y2="229.4" stroke="#88DDA8" stroke-width="2.8" stroke-linecap="round"/>
<line x1="211.1" y1="255.9" x2="201.6" y2="231.2" stroke="#88DDA8" stroke-width="2.8" stroke-linecap="round"/>
<circle cx="211.1" cy="255.9" r="5.5" fill="#00C244"/>
<line x1="190.0" y1="258.0" x2="194.5" y2="231.9" stroke="#88DDA8" stroke-width="2.8" stroke-linecap="round"/>
<line x1="190.0" y1="258.0" x2="185.5" y2="231.9" stroke="#88DDA8" stroke-width="2.8" stroke-linecap="round"/>
<circle cx="190.0" cy="258.0" r="5.5" fill="#00C244"/>
<line x1="168.9" y1="255.9" x2="178.4" y2="231.2" stroke="#88DDA8" stroke-width="2.8" stroke-linecap="round"/>
<line x1="168.9" y1="255.9" x2="169.6" y2="229.4" stroke="#88DDA8" stroke-width="2.8" stroke-linecap="round"/>
<circle cx="168.9" cy="255.9" r="5.5" fill="#00C244"/>
<line x1="148.7" y1="249.8" x2="162.8" y2="227.4" stroke="#88DDA8" stroke-width="2.8" stroke-linecap="round"/>
<line x1="148.7" y1="249.8" x2="154.5" y2="223.9" stroke="#88DDA8" stroke-width="2.8" stroke-linecap="round"/>
<circle cx="148.7" cy="249.8" r="5.5" fill="#00C244"/>
<line x1="130.0" y1="239.8" x2="148.3" y2="220.6" stroke="#88DDA8" stroke-width="2.8" stroke-linecap="round"/>
<line x1="130.0" y1="239.8" x2="140.8" y2="215.6" stroke="#88DDA8" stroke-width="2.8" stroke-linecap="round"/>
<circle cx="130.0" cy="239.8" r="5.5" fill="#00C244"/>
<line x1="113.6" y1="226.4" x2="135.3" y2="211.1" stroke="#88DDA8" stroke-width="2.8" stroke-linecap="round"/>
<line x1="113.6" y1="226.4" x2="128.9" y2="204.7" stroke="#88DDA8" stroke-width="2.8" stroke-linecap="round"/>
<circle cx="113.6" cy="226.4" r="5.5" fill="#00C244"/>
<line x1="100.2" y1="210.0" x2="124.4" y2="199.2" stroke="#88DDA8" stroke-width="2.8" stroke-linecap="round"/>
<line x1="100.2" y1="210.0" x2="119.4" y2="191.7" stroke="#88DDA8" stroke-width="2.8" stroke-linecap="round"/>
<circle cx="100.2" cy="210.0" r="5.5" fill="#00C244"/>
<line x1="90.2" y1="191.3" x2="116.1" y2="185.5" stroke="#88DDA8" stroke-width="2.8" stroke-linecap="round"/>
<line x1="90.2" y1="191.3" x2="112.6" y2="177.2" stroke="#88DDA8" stroke-width="2.8" stroke-linecap="round"/>
<circle cx="90.2" cy="191.3" r="5.5" fill="#00C244"/>
<line x1="84.1" y1="171.1" x2="110.6" y2="170.4" stroke="#88DDA8" stroke-width="2.8" stroke-linecap="round"/>
<line x1="84.1" y1="171.1" x2="108.8" y2="161.6" stroke="#88DDA8" stroke-width="2.8" stroke-linecap="round"/>
<circle cx="84.1" cy="171.1" r="5.5" fill="#00C244"/>
<line x1="82.0" y1="150.0" x2="108.1" y2="154.5" stroke="#88DDA8" stroke-width="2.8" stroke-linecap="round"/>
<line x1="82.0" y1="150.0" x2="108.1" y2="145.5" stroke="#88DDA8" stroke-width="2.8" stroke-linecap="round"/>
<circle cx="82.0" cy="150.0" r="5.5" fill="#00C244"/>
<line x1="84.1" y1="128.9" x2="108.8" y2="138.4" stroke="#88DDA8" stroke-width="2.8" stroke-linecap="round"/>
<line x1="84.1" y1="128.9" x2="110.6" y2="129.6" stroke="#88DDA8" stroke-width="2.8" stroke-linecap="round"/>
<circle cx="84.1" cy="128.9" r="5.5" fill="#00C244"/>
<line x1="90.2" y1="108.7" x2="112.6" y2="122.8" stroke="#88DDA8" stroke-width="2.8" stroke-linecap="round"/>
<line x1="90.2" y1="108.7" x2="116.1" y2="114.5" stroke="#88DDA8" stroke-width="2.8" stroke-linecap="round"/>
<circle cx="90.2" cy="108.7" r="5.5" fill="#00C244"/>
<line x1="100.2" y1="90.0" x2="119.4" y2="108.3" stroke="#88DDA8" stroke-width="2.8" stroke-linecap="round"/>
<line x1="100.2" y1="90.0" x2="124.4" y2="100.8" stroke="#88DDA8" stroke-width="2.8" stroke-linecap="round"/>
<circle cx="100.2" cy="90.0" r="5.5" fill="#00C244"/>
<line x1="113.6" y1="73.6" x2="128.9" y2="95.3" stroke="#88DDA8" stroke-width="2.8" stroke-linecap="round"/>
<line x1="113.6" y1="73.6" x2="135.3" y2="88.9" stroke="#88DDA8" stroke-width="2.8" stroke-linecap="round"/>
<circle cx="113.6" cy="73.6" r="5.5" fill="#00C244"/>
<line x1="130.0" y1="60.2" x2="140.8" y2="84.4" stroke="#88DDA8" stroke-width="2.8" stroke-linecap="round"/>
<line x1="130.0" y1="60.2" x2="148.3" y2="79.4" stroke="#88DDA8" stroke-width="2.8" stroke-linecap="round"/>
<circle cx="130.0" cy="60.2" r="5.5" fill="#00C244"/>
<line x1="148.7" y1="50.2" x2="154.5" y2="76.1" stroke="#88DDA8" stroke-width="2.8" stroke-linecap="round"/>
<line x1="148.7" y1="50.2" x2="162.8" y2="72.6" stroke="#88DDA8" stroke-width="2.8" stroke-linecap="round"/>
<circle cx="148.7" cy="50.2" r="5.5" fill="#00C244"/>
<line x1="168.9" y1="44.1" x2="169.6" y2="70.6" stroke="#88DDA8" stroke-width="2.8" stroke-linecap="round"/>
<line x1="168.9" y1="44.1" x2="178.4" y2="68.8" stroke="#88DDA8" stroke-width="2.8" stroke-linecap="round"/>
<circle cx="168.9" cy="44.1" r="5.5" fill="#00C244"/>
<line x1="199.5" y1="92.8" x2="198.0" y2="66.4" stroke="#F0A0DC" stroke-width="2.8" stroke-linecap="round"/>
<line x1="199.5" y1="92.8" x2="209.6" y2="68.3" stroke="#F0A0DC" stroke-width="2.8" stroke-linecap="round"/>
<circle cx="199.5" cy="92.8" r="5.5" fill="#CC00AA"/>
<line x1="217.6" y1="99.0" x2="224.7" y2="73.5" stroke="#F0A0DC" stroke-width="2.8" stroke-linecap="round"/>
<line x1="217.6" y1="99.0" x2="235.0" y2="79.1" stroke="#F0A0DC" stroke-width="2.8" stroke-linecap="round"/>
<circle cx="217.6" cy="99.0" r="5.5" fill="#CC00AA"/>
<line x1="232.7" y1="110.7" x2="247.7" y2="88.9" stroke="#F0A0DC" stroke-width="2.8" stroke-linecap="round"/>
<line x1="232.7" y1="110.7" x2="255.6" y2="97.6" stroke="#F0A0DC" stroke-width="2.8" stroke-linecap="round"/>
<circle cx="232.7" cy="110.7" r="5.5" fill="#CC00AA"/>
<line x1="243.1" y1="126.7" x2="264.4" y2="111.0" stroke="#F0A0DC" stroke-width="2.8" stroke-linecap="round"/>
<line x1="243.1" y1="126.7" x2="269.1" y2="121.7" stroke="#F0A0DC" stroke-width="2.8" stroke-linecap="round"/>
<circle cx="243.1" cy="126.7" r="5.5" fill="#CC00AA"/>
<line x1="247.8" y1="145.2" x2="273.0" y2="137.2" stroke="#F0A0DC" stroke-width="2.8" stroke-linecap="round"/>
<line x1="247.8" y1="145.2" x2="274.0" y2="148.9" stroke="#F0A0DC" stroke-width="2.8" stroke-linecap="round"/>
<circle cx="247.8" cy="145.2" r="5.5" fill="#CC00AA"/>
<line x1="246.2" y1="164.2" x2="272.7" y2="164.9" stroke="#F0A0DC" stroke-width="2.8" stroke-linecap="round"/>
<line x1="246.2" y1="164.2" x2="269.8" y2="176.3" stroke="#F0A0DC" stroke-width="2.8" stroke-linecap="round"/>
<circle cx="246.2" cy="164.2" r="5.5" fill="#CC00AA"/>
<line x1="238.6" y1="181.7" x2="263.4" y2="190.9" stroke="#F0A0DC" stroke-width="2.8" stroke-linecap="round"/>
<line x1="238.6" y1="181.7" x2="256.9" y2="200.7" stroke="#F0A0DC" stroke-width="2.8" stroke-linecap="round"/>
<circle cx="238.6" cy="181.7" r="5.5" fill="#CC00AA"/>
<line x1="225.6" y1="195.8" x2="246.1" y2="212.5" stroke="#F0A0DC" stroke-width="2.8" stroke-linecap="round"/>
<line x1="225.6" y1="195.8" x2="236.8" y2="219.7" stroke="#F0A0DC" stroke-width="2.8" stroke-linecap="round"/>
<circle cx="225.6" cy="195.8" r="5.5" fill="#CC00AA"/>
<line x1="208.8" y1="204.9" x2="222.8" y2="227.3" stroke="#F0A0DC" stroke-width="2.8" stroke-linecap="round"/>
<line x1="208.8" y1="204.9" x2="211.7" y2="231.2" stroke="#F0A0DC" stroke-width="2.8" stroke-linecap="round"/>
<circle cx="208.8" cy="204.9" r="5.5" fill="#CC00AA"/>
<line x1="190.0" y1="208.0" x2="195.9" y2="233.8" stroke="#F0A0DC" stroke-width="2.8" stroke-linecap="round"/>
<line x1="190.0" y1="208.0" x2="184.1" y2="233.8" stroke="#F0A0DC" stroke-width="2.8" stroke-linecap="round"/>
<circle cx="190.0" cy="208.0" r="5.5" fill="#CC00AA"/>
<line x1="171.2" y1="204.9" x2="168.3" y2="231.2" stroke="#F0A0DC" stroke-width="2.8" stroke-linecap="round"/>
<line x1="171.2" y1="204.9" x2="157.2" y2="227.3" stroke="#F0A0DC" stroke-width="2.8" stroke-linecap="round"/>
<circle cx="171.2" cy="204.9" r="5.5" fill="#CC00AA"/>
<line x1="154.4" y1="195.8" x2="143.2" y2="219.7" stroke="#F0A0DC" stroke-width="2.8" stroke-linecap="round"/>
<line x1="154.4" y1="195.8" x2="133.9" y2="212.5" stroke="#F0A0DC" stroke-width="2.8" stroke-linecap="round"/>
<circle cx="154.4" cy="195.8" r="5.5" fill="#CC00AA"/>
<line x1="141.4" y1="181.7" x2="123.1" y2="200.7" stroke="#F0A0DC" stroke-width="2.8" stroke-linecap="round"/>
<line x1="141.4" y1="181.7" x2="116.6" y2="190.9" stroke="#F0A0DC" stroke-width="2.8" stroke-linecap="round"/>
<circle cx="141.4" cy="181.7" r="5.5" fill="#CC00AA"/>
<line x1="133.8" y1="164.2" x2="110.2" y2="176.3" stroke="#F0A0DC" stroke-width="2.8" stroke-linecap="round"/>
<line x1="133.8" y1="164.2" x2="107.3" y2="164.9" stroke="#F0A0DC" stroke-width="2.8" stroke-linecap="round"/>
<circle cx="133.8" cy="164.2" r="5.5" fill="#CC00AA"/>
<line x1="132.2" y1="145.2" x2="106.0" y2="148.9" stroke="#F0A0DC" stroke-width="2.8" stroke-linecap="round"/>
<line x1="132.2" y1="145.2" x2="107.0" y2="137.2" stroke="#F0A0DC" stroke-width="2.8" stroke-linecap="round"/>
<circle cx="132.2" cy="145.2" r="5.5" fill="#CC00AA"/>
<line x1="136.9" y1="126.7" x2="110.9" y2="121.7" stroke="#F0A0DC" stroke-width="2.8" stroke-linecap="round"/>
<line x1="136.9" y1="126.7" x2="115.6" y2="111.0" stroke="#F0A0DC" stroke-width="2.8" stroke-linecap="round"/>
<circle cx="136.9" cy="126.7" r="5.5" fill="#CC00AA"/>
<line x1="147.3" y1="110.7" x2="124.4" y2="97.6" stroke="#F0A0DC" stroke-width="2.8" stroke-linecap="round"/>
<line x1="147.3" y1="110.7" x2="132.3" y2="88.9" stroke="#F0A0DC" stroke-width="2.8" stroke-linecap="round"/>
<circle cx="147.3" cy="110.7" r="5.5" fill="#CC00AA"/>
<line x1="162.4" y1="99.0" x2="145.0" y2="79.1" stroke="#F0A0DC" stroke-width="2.8" stroke-linecap="round"/>
<line x1="162.4" y1="99.0" x2="155.3" y2="73.5" stroke="#F0A0DC" stroke-width="2.8" stroke-linecap="round"/>
<circle cx="162.4" cy="99.0" r="5.5" fill="#CC00AA"/>
<line x1="180.5" y1="92.8" x2="170.4" y2="68.3" stroke="#F0A0DC" stroke-width="2.8" stroke-linecap="round"/>
<line x1="180.5" y1="92.8" x2="182.0" y2="66.4" stroke="#F0A0DC" stroke-width="2.8" stroke-linecap="round"/>
<circle cx="180.5" cy="92.8" r="5.5" fill="#CC00AA"/>
<text x="190" y="150" text-anchor="middle" dominant-baseline="middle" font-family="Century Gothic, Futura, Trebuchet MS, Arial, sans-serif" font-size="48" font-weight="bold" fill="#F0F0F0" textLength="318" lengthAdjust="spacingAndGlyphs">HEBERLE LAB</text>
</svg>